<svg fill="none" height="24" viewBox="0 0 24 24" width="24" xmlns="http://www.w3.org/2000/svg"><g stroke="#1c274c" stroke-width="1.5"><path d="m2 12c0-4.71405 0-7.07107 1.46447-8.53553 1.46446-1.46447 3.82148-1.46447 8.53553-1.46447 4.714 0 7.0711 0 8.5355 1.46447 1.4645 1.46446 1.4645 3.82148 1.4645 8.53553 0 4.714 0 7.0711-1.4645 8.5355-1.4644 1.4645-3.8215 1.4645-8.5355 1.4645-4.71405 0-7.07107 0-8.53553-1.4645-1.46447-1.4644-1.46447-3.8215-1.46447-8.5355z" opacity=".5"/><path d="m15.9775 8.71452-.442-.45242c-1.9526-1.99892-5.1184-1.99892-7.07103 0-1.95263 1.9989-1.95263 5.2398 0 7.2387s5.11843 1.9989 7.07103 0c1.1355-1.1624 1.6107-2.7449 1.4256-4.2588m-.9836-2.52748h-2.6517m2.6517 0v-2.71452" stroke-linecap="round" stroke-linejoin="round"/></g></svg>